REM DIRINDEX 1\3,1\4,1\5,1\6,1\2\7,1\2\8,1\2\9,1\10
REM DIRNAME cjc056,folder01,folder02,folder03,folder04,folder05,folder06,folder07,folder08,folder09
TITLE ""
FILE "2-34 Level 5-827-836.mp3" MP3
  TRACK 01 AUDIO
    TITLE "0:"
    INDEX 01 00:00:00
  TRACK 02 AUDIO
    TITLE "7:cjc056_2821"
    INDEX 01 00:00:03
  TRACK 03 AUDIO
    TITLE "0:"
    INDEX 01 00:01:21
  TRACK 04 AUDIO
    TITLE "8:cjc056_2822"
    INDEX 01 00:01:30
  TRACK 05 AUDIO
    TITLE "0:"
    INDEX 01 00:03:08
  TRACK 06 AUDIO
    TITLE "9:cjc056_2823"
    INDEX 01 00:03:21
  TRACK 07 AUDIO
    TITLE "0:"
    INDEX 01 00:06:02
  TRACK 08 AUDIO
    TITLE "7:cjc056_2824"
    INDEX 01 00:06:55
  TRACK 09 AUDIO
    TITLE "0:"
    INDEX 01 00:07:68
  TRACK 10 AUDIO
    TITLE "8:cjc056_2825"
    INDEX 01 00:08:05
  TRACK 11 AUDIO
    TITLE "0:"
    INDEX 01 00:09:28
  TRACK 12 AUDIO
    TITLE "9:cjc056_2826"
    INDEX 01 00:09:42
  TRACK 13 AUDIO
    TITLE "0:"
    INDEX 01 00:12:03
  TRACK 14 AUDIO
    TITLE "7:cjc056_2827"
    INDEX 01 00:12:54
  TRACK 15 AUDIO
    TITLE "0:"
    INDEX 01 00:13:61
  TRACK 16 AUDIO
    TITLE "8:cjc056_2828"
    INDEX 01 00:14:06
  TRACK 17 AUDIO
    TITLE "0:"
    INDEX 01 00:15:34
  TRACK 18 AUDIO
    TITLE "9:cjc056_2829"
    INDEX 01 00:15:48
  TRACK 19 AUDIO
    TITLE "0:"
    INDEX 01 00:19:69
  TRACK 20 AUDIO
    TITLE "7:cjc056_2830"
    INDEX 01 00:20:45
  TRACK 21 AUDIO
    TITLE "0:"
    INDEX 01 00:21:53
  TRACK 22 AUDIO
    TITLE "8:cjc056_2831"
    INDEX 01 00:21:68
  TRACK 23 AUDIO
    TITLE "0:"
    INDEX 01 00:23:44
  TRACK 24 AUDIO
    TITLE "9:cjc056_2832"
    INDEX 01 00:23:57
  TRACK 25 AUDIO
    TITLE "0:"
    INDEX 01 00:26:26
  TRACK 26 AUDIO
    TITLE "7:cjc056_2833"
    INDEX 01 00:27:04
  TRACK 27 AUDIO
    TITLE "0:"
    INDEX 01 00:27:73
  TRACK 28 AUDIO
    TITLE "8:cjc056_2834"
    INDEX 01 00:28:13
  TRACK 29 AUDIO
    TITLE "0:"
    INDEX 01 00:29:34
  TRACK 30 AUDIO
    TITLE "9:cjc056_2835"
    INDEX 01 00:29:42
  TRACK 31 AUDIO
    TITLE "0:"
    INDEX 01 00:32:35
  TRACK 32 AUDIO
    TITLE "7:cjc056_2836"
    INDEX 01 00:33:11
  TRACK 33 AUDIO
    TITLE "0:"
    INDEX 01 00:34:26
  TRACK 34 AUDIO
    TITLE "8:cjc056_2837"
    INDEX 01 00:34:42
  TRACK 35 AUDIO
    TITLE "0:"
    INDEX 01 00:35:66
  TRACK 36 AUDIO
    TITLE "9:cjc056_2838"
    INDEX 01 00:36:03
  TRACK 37 AUDIO
    TITLE "0:"
    INDEX 01 00:39:19
  TRACK 38 AUDIO
    TITLE "7:cjc056_2839"
    INDEX 01 00:39:72
  TRACK 39 AUDIO
    TITLE "0:"
    INDEX 01 00:41:14
  TRACK 40 AUDIO
    TITLE "8:cjc056_2840"
    INDEX 01 00:41:28
  TRACK 41 AUDIO
    TITLE "0:"
    INDEX 01 00:43:07
  TRACK 42 AUDIO
    TITLE "9:cjc056_2841"
    INDEX 01 00:43:21
  TRACK 43 AUDIO
    TITLE "0:"
    INDEX 01 00:46:33
  TRACK 44 AUDIO
    TITLE "7:cjc056_2842"
    INDEX 01 00:47:11
  TRACK 45 AUDIO
    TITLE "0:"
    INDEX 01 00:48:10
  TRACK 46 AUDIO
    TITLE "8:cjc056_2843"
    INDEX 01 00:48:26
  TRACK 47 AUDIO
    TITLE "0:"
    INDEX 01 00:50:54
  TRACK 48 AUDIO
    TITLE "9:cjc056_2844"
    INDEX 01 00:50:68
  TRACK 49 AUDIO
    TITLE "0:"
    INDEX 01 00:53:60
  TRACK 50 AUDIO
    TITLE "7:cjc056_2845"
    INDEX 01 00:54:36
  TRACK 51 AUDIO
    TITLE "0:"
    INDEX 01 00:55:48
  TRACK 52 AUDIO
    TITLE "8:cjc056_2846"
    INDEX 01 00:55:61
  TRACK 53 AUDIO
    TITLE "0:"
    INDEX 01 00:56:72
  TRACK 54 AUDIO
    TITLE "9:cjc056_2847"
    INDEX 01 00:57:11
  TRACK 55 AUDIO
    TITLE "0:"
    INDEX 01 01:00:23
  TRACK 56 AUDIO
    TITLE "7:cjc056_2848"
    INDEX 01 01:01:01
  TRACK 57 AUDIO
    TITLE "0:"
    INDEX 01 01:02:16
  TRACK 58 AUDIO
    TITLE "8:cjc056_2849"
    INDEX 01 01:02:28
  TRACK 59 AUDIO
    TITLE "0:"
    INDEX 01 01:03:29
  TRACK 60 AUDIO
    TITLE "9:cjc056_2850"
    INDEX 01 01:03:43
  TRACK 61 AUDIO
    TITLE "0:"
    INDEX 01 01:06:49
